<svg width="27" height="27" viewBox="0 0 27 27" fill="none" xmlns="http://www.w3.org/2000/svg">
<style>
  @media (prefers-color-scheme: light) {
    path {
      fill: #0D0926;
    }
  }
  @media (prefers-color-scheme: dark) {
    path {
      fill: #ffffff;
    }
  }
</style>
<path opacity="0.23" fill-rule="evenodd" clip-rule="evenodd" d="M17.4622 24.3964C16.3446 25.2666 15.0698 25.9785 13.475 26.075C13.188 26.0924 12.9002 26.0924 12.6132 26.075C11.0184 25.9785 9.7436 25.2666 8.626 24.3964C7.588 23.5883 6.44858 22.4487 5.15222 21.1522C5.11629 21.1162 5.08023 21.0802 5.04406 21.044C5.00789 21.0078 4.97183 20.9718 4.9359 20.9358C3.63936 19.6395 2.49977 18.5001 1.69159 17.4621C0.82146 16.3445 0.10949 15.0697 0.01302 13.4749C-0.00434 13.1879 -0.00434 12.9001 0.01302 12.6131C0.10949 11.0183 0.82146 9.74352 1.69159 8.62592C2.49977 7.58792 3.63936 6.44854 4.9359 5.15218C4.97183 5.11625 5.00789 5.0802 5.04406 5.04403C5.08023 5.00786 5.11629 4.9718 5.15222 4.93587C6.44858 3.63934 7.588 2.49975 8.626 1.69158C9.7436 0.82146 11.0184 0.10949 12.6132 0.01302C12.9002 -0.00434 13.188 -0.00434 13.475 0.01302C15.0698 0.10949 16.3446 0.82146 17.4622 1.69158C18.5002 2.49975 19.6396 3.63934 20.936 4.93588C20.9719 4.97181 21.008 5.00786 21.0441 5.04403C21.0803 5.0802 21.1164 5.11625 21.1523 5.15217C22.4488 6.44853 23.5884 7.58792 24.3966 8.62592C25.2667 9.74352 25.9787 11.0183 26.0752 12.6131C26.0925 12.9001 26.0925 13.1879 26.0752 13.4749C25.9787 15.0697 25.2667 16.3445 24.3966 17.4621C23.5884 18.5001 22.4488 19.6395 21.1523 20.9358C21.1164 20.9718 21.0803 21.0078 21.0441 21.044C21.008 21.0802 20.9719 21.1162 20.936 21.1521C19.6396 22.4487 18.5002 23.5883 17.4622 24.3964ZM2.61913 13.3172C2.72276 15.0304 4.11191 16.4195 6.89022 19.1978C9.6685 21.9761 11.0577 23.3653 12.7709 23.4689C12.9529 23.4799 13.1354 23.4799 13.3173 23.4689C15.0305 23.3653 16.4197 21.9761 19.198 19.1978C21.9763 16.4195 23.3655 15.0304 23.4691 13.3172C23.4801 13.1352 23.4801 12.9528 23.4691 12.7708C23.3655 11.0576 21.9763 9.66852 19.198 6.89018C16.4197 4.11189 15.0305 2.72274 13.3173 2.61911C13.1354 2.6081 12.9529 2.6081 12.7709 2.61911C11.0577 2.72274 9.6685 4.11189 6.89022 6.89018C4.11191 9.66852 2.72276 11.0576 2.61913 12.7708C2.60812 12.9528 2.60812 13.1352 2.61913 13.3172Z" fill="#0D0926"/>
<path d="M6.08148 13.0444C6.08148 12.76 6.28271 12.5167 6.55932 12.4505C7.9623 12.115 9.0671 11.5899 9.9947 10.7681C10.2677 10.5263 10.5257 10.2682 10.7676 9.99532C11.5893 9.06772 12.1144 7.96292 12.45 6.55994C12.5161 6.28334 12.7594 6.08211 13.0438 6.08211C13.3282 6.08211 13.5715 6.28334 13.6376 6.55994C13.9732 7.96292 14.4982 9.06772 15.32 9.99532C15.5618 10.2682 15.8199 10.5263 16.0929 10.7681C17.0205 11.5899 18.1253 12.115 19.5283 12.4505C19.8049 12.5167 20.0061 12.76 20.0061 13.0444C20.0061 13.3288 19.8049 13.572 19.5283 13.6382C18.1253 13.9737 17.0205 14.4988 16.0929 15.3206C15.8199 15.5624 15.5618 15.8205 15.32 16.0934C14.4983 17.021 13.9732 18.1258 13.6376 19.5288C13.5715 19.8054 13.3282 20.0066 13.0438 20.0066C12.7594 20.0066 12.5161 19.8054 12.45 19.5288C12.1144 18.1258 11.5893 17.021 10.7676 16.0934C10.5257 15.8205 10.2677 15.5624 9.9947 15.3206C9.0671 14.4988 7.9623 13.9737 6.55932 13.6382C6.28271 13.572 6.08148 13.3288 6.08148 13.0444Z" fill="#0D0926"/>
</svg>
